# xmcd CD database file
#
# Track frame offsets:
#	150
#	13728
#	35342
#	63870
#	85819
#	106890
#	113969
#	132237
#	150984
#	176403
#	192241
#	200983
#	213443
#	222498
#	233756
#	257659
#	273649
#	286920
#	313580
#	335092
#
# Disc length: 4794 seconds
#
# Revision: 0
# Processed by: cddbd v1.5.2PL0 Copyright (c) Steve Scherf et al.
# Submitted via: CDex 1.51
#
DISCID=2812b814
DTITLE=Blind Lemming Chiffon - Such Tunes As Killed The Chao [expanded 2014]
DYEAR=2014
DGENRE=Blues
TTITLE0=Song For Raging Children
TTITLE1=Mr. Peabody's Lament
TTITLE2=Mr. Bullwinkle
TTITLE3=Velveteen Lemming
TTITLE4=When I Grow Up I Want To Be Snidely Whiplash
TTITLE5=If We Only Had Your Brain
TTITLE6=The Lemming And The Ecologist
TTITLE7=The Will Of Landru
TTITLE8=Ballad Of A Tin Man
TTITLE9=Drop Down Lemming
TTITLE10=Over The Clifftop
TTITLE11=When Worlds Collide
TTITLE12=Semor D. Nilap's Palindromes
TTITLE13=End The Beguine
TTITLE14=Angel Dust
TTITLE15=Clean Person's Hymn
TTITLE16=Across The Laundromat
TTITLE17=Rare Roast Beast
TTITLE18=A Boy And His Bus
TTITLE19=Charles
EXTD=YEAR: 2014
EXTT0=
EXTT1=
EXTT2=
EXTT3=
EXTT4=
EXTT5=
EXTT6=
EXTT7=
EXTT8=
EXTT9=
EXTT10=
EXTT11=
EXTT12=
EXTT13=
EXTT14=
EXTT15=
EXTT16=
EXTT17=
EXTT18=
EXTT19=
PLAYORDER=
